<svg xmlns="http://www.w3.org/2000/svg" width="60" height="60" viewBox="0 0 60 60">
  <defs>
    <linearGradient id="linearGradient-15" x1="25.56" x2="19.44" y1="12" y2="18.12" gradientUnits="userSpaceOnUse">
      <stop offset="0" stop-color="rgb(147,147,147)"/>
      <stop offset="1" stop-color="rgb(255,255,255)"/>
    </linearGradient>
  </defs>
  <g>
    <path fill="rgb(255,46,85)" fill-rule="evenodd" d="M3 3C6.08891678-.08891678 9.99537217 0 9.99537217 0h39.99987689s3.9145075-.08997582 7.00448332 3c3.08997582 3.08997582 2.99998592 6.99537217 2.99998592 6.99537217v39.99987689s.09103674 3.91346067-2.99998592 7.00448332c-3.09102265 3.09102266-7.00216384 2.99998592-7.00216384 2.99998592H9.9976166S6.08996398 60.08969636 3 56.99973238s-3-7.00216384-3-7.00216384V9.9976166S-.08891678 6.0889168 3 3z"/>
    <path fill="rgb(255,255,255)" fill-rule="evenodd" d="M46.47526481 7.74292976c-1.8511624-2.11606798-4.49268851-1.71208293-4.49268851-1.71208293L23.9994658 6 12 18.00189104l.02698519 29.11937068s-.35333621 3.01984183 1.49775128 5.13582418c1.8510875 2.11598236 4.49276384 1.71208293 4.49276384 1.71208293h23.96488732s2.641807.40387965 4.49287718-1.71208293c1.8510702-2.11596257 1.49775129-5.13556659 1.49775129-5.13556659v-34.2421251s.3534111-3.02039648-1.49775129-5.13646445z"/>
    <path fill="rgb(255,46,85)" fill-rule="evenodd" d="M33 18h9v3h-9s-1.5000668 0-1.5000668-1.5S33 18 33 18z"/>
    <path fill="rgb(255,46,85)" fill-rule="evenodd" d="M33 30h9v3h-9s-1.5000668 0-1.5000668-1.5S33 30 33 30z"/>
    <path fill="rgb(255,46,85)" fill-rule="evenodd" d="M33 42h9v3h-9s-1.5000668 0-1.5000668-1.5S33 42 33 42z"/>
    <g>
      <path fill="rgb(255,46,85)" fill-rule="evenodd" d="M19.49993891 39H25.50006131C26.4 39 27 39.6 27 40.50007648V46.50000012C27 47.4 26.4 48 25.49992352 48h-4.49994853-1.49997511C18.6 48 18 47.4 18 46.49992352v-4.4999335-1.4999288C18 39.6 18.6 39 19.49993891 39z"/>
      <path fill="rgb(255,255,255)" fill-rule="evenodd" d="M19.89994706 39.6H25.10005314C25.88 39.6 26.4 40.12 26.4 40.90006629v5.19993382C26.4 46.88 25.88 47.4 25.09993371 47.4h-3.89995538-1.29997844C19.12 47.4 18.6 46.88 18.6 46.09993371V42.19999135v-1.29993829C18.6 40.12 19.12 39.6 19.89994706 39.6z"/>
    </g>
    <g>
      <path fill="rgb(255,46,85)" fill-rule="evenodd" d="M19.49993891 15H25.50006131C26.4 15 27 15.6 27 16.50007648V22.50000012C27 23.4 26.4 24 25.49992352 24h-4.49994853-1.49997511C18.6 24 18 23.4 18 22.49992352v-4.4999335-1.4999288C18 15.6 18.6 15 19.49993891 15z"/>
      <path fill="rgb(255,255,255)" fill-rule="evenodd" d="M19.89994706 15.6H25.10005314C25.88 15.6 26.4 16.12 26.4 16.90006629v5.19993382C26.4 22.88 25.88 23.4 25.09993371 23.4h-3.89995538-1.29997844C19.12 23.4 18.6 22.88 18.6 22.09993371V18.19999135v-1.29993829C18.6 16.12 19.12 15.6 19.89994706 15.6z"/>
    </g>
    <g>
      <path fill="rgb(255,46,85)" fill-rule="evenodd" d="M19.49993891 27H25.50006131C26.4 27 27 27.6 27 28.50007648V34.50000012C27 35.4 26.4 36 25.49992352 36h-4.49994853-1.49997511C18.6 36 18 35.4 18 34.49992352v-4.4999335-1.4999288C18 27.6 18.6 27 19.49993891 27z"/>
      <rect width=".6" height="2.31" x="20.529" y="31.374" fill="rgb(255,255,255)" transform="rotate(-45.000016 20.82884037 32.52884037)"/>
      <path fill="rgb(255,255,255)" fill-rule="evenodd" d="M24.39411308 29.76000041l.42426395.4242642-1.15412686 1.1541262-2.21877343 2.2187722-.42426395-.4242642 3.0800407-3.08003896.2928596-.29285944z"/>
    </g>
    <g>
      <path fill="rgb(149,149,149)" fill-rule="evenodd" d="M24.3 6H24L12 18v.3h9.22473808C22.76197617 18.3 24.3 16.7618918 24.3 15.2246959V6z"/>
      <path fill="url(#linearGradient-15)" fill-rule="evenodd" d="M12 6l12 12h-6.00016786-2.99957661C13.50051106 18 12 16.49940663 12 14.99970331V6z" transform="matrix(-1 0 0 1 36 0)"/>
    </g>
  </g>
</svg>
